<?xml version="1.0" encoding="UTF-8"?>
<svg width="24px" height="24px" viewBox="0 0 24 24" version="1.1" xmlns="http://www.w3.org/2000/svg">
    <g stroke="none" stroke-width="1" fill="none" fill-rule="evenodd">
        <path d="M12,2 C8.13,2 5,5.13 5,9 C5,11.38 6.19,13.47 8,14.74 L8,17 C8,17.55 8.45,18 9,18 L15,18 C15.55,18 16,17.55 16,17 L16,14.74 C17.81,13.47 19,11.38 19,9 C19,5.13 15.87,2 12,2 Z M12,4 C14.76,4 17,6.24 17,9 C17,11.05 15.94,12.81 14.35,13.73 L14,13.93 L14,16 L10,16 L10,13.93 L9.65,13.73 C8.06,12.81 7,11.05 7,9 C7,6.24 9.24,4 12,4 Z" fill="#4F46E5" fill-rule="nonzero"/>
        <path d="M12,6 C10.9,6 10,6.9 10,8 C10,9.1 10.9,10 12,10 C13.1,10 14,9.1 14,8 C14,6.9 13.1,6 12,6 Z M12,7 C12.55,7 13,7.45 13,8 C13,8.55 12.55,9 12,9 C11.45,9 11,8.55 11,8 C11,7.45 11.45,7 12,7 Z" fill="#4F46E5" fill-rule="nonzero"/>
    </g>
</svg> 